<svg xmlns="http://www.w3.org/2000/svg" width="259" height="283"> <style> .a,.b,.e { fill:#004890; } .a,.b { stroke-linecap:round; } .b,.c { stroke:#004890; } .c,.f { fill:none; } .c { stroke-width: 20px; } .d,.e { stroke:none; } @media (prefers-color-scheme: dark) { .a,.b,.e { fill: #ffffff; } .b,.c { stroke:#fff; } } </style> <g transform="translate(-32 -169)"> <g transform="translate(53 -51)"> <g class="a" transform="translate(109 282) rotate(180)"> <path class="d" d="M 73.88327026367188 41.5 L 1.116728901863098 41.5 L 37.5 0.7507364153862 L 73.88327026367188 41.5 Z" /> <path class="e" d="M 37.5 1.501472473144531 L 2.23345947265625 41 L 72.76654052734375 41 L 37.5 1.501472473144531 M 37.5 0 L 75 42 L 0 42 L 37.5 0 Z" /> </g> <g class="a" transform="translate(34 220)"> <path class="d" d="M 22.1357364654541 19.5 L 0.8642629981040955 19.5 L 11.5 1.003066062927246 L 22.1357364654541 19.5 Z" /> <path class="e" d="M 11.5 2.006139755249023 L 1.728530883789062 19 L 21.27146911621094 19 L 11.5 2.006139755249023 M 11.5 0 L 23 20 L 0 20 L 11.5 0 Z" /> </g> <g class="a" transform="translate(86 220)"> <path class="d" d="M 22.1357364654541 19.5 L 0.8642629981040955 19.5 L 11.5 1.003066062927246 L 22.1357364654541 19.5 Z" /> <path class="e" d="M 11.5 2.006139755249023 L 1.728530883789062 19 L 21.27146911621094 19 L 11.5 2.006139755249023 M 11.5 0 L 23 20 L 0 20 L 11.5 0 Z" /> </g> <g class="b" transform="translate(45.5 220)"> <rect class="d" width="52" height="20" /> <rect class="f" x="0.5" y="0.5" width="51" height="19" /> </g> <g class="c" transform="translate(-21 263)"> <circle class="d" cx="92.5" cy="92.5" r="92.5" /> <circle class="f" cx="92.5" cy="92.5" r="82.5" /> </g> </g> <g class="c" transform="translate(106 267)"> <circle class="d" cx="92.5" cy="92.5" r="92.5" /> <circle class="f" cx="92.5" cy="92.5" r="82.5" /> </g> </g></svg>