<svg xmlns="http://www.w3.org/2000/svg" width="1529" height="795" viewBox="0 0 1529 795"><g transform="translate(-53 -178)"><text transform="translate(255 610)" fill="#fff" font-size="60" font-family="FontAwesome5Free-Solid, 'Font Awesome 5 Free'"><tspan x="0" y="0">Tree</tspan></text><text transform="translate(772 271)" fill="#fff" font-size="60" font-family="FontAwesome5Free-Solid, 'Font Awesome 5 Free'"><tspan x="0" y="0">Mountain</tspan></text><text transform="translate(885 413)" fill="#fff" font-size="60" font-family="FontAwesome5Free-Solid, 'Font Awesome 5 Free'"><tspan x="0" y="0">Campground</tspan></text><text transform="translate(310 641)" fill="#fff" font-size="60" font-family="FontAwesome5Free-Solid, 'Font Awesome 5 Free'"><tspan x="0" y="0">Tree</tspan></text><text transform="translate(1071 914)" fill="#fff" font-size="60" font-family="FontAwesome5Free-Solid, 'Font Awesome 5 Free'"><tspan x="0" y="0">Tree</tspan></text><text transform="translate(832 905)" fill="#fff" font-size="60" font-family="FontAwesome5Free-Solid, 'Font Awesome 5 Free'"><tspan x="0" y="0">Tree</tspan></text><text transform="translate(1251 823)" fill="#fff" font-size="60" font-family="FontAwesome5Free-Solid, 'Font Awesome 5 Free'"><tspan x="0" y="0">Tree</tspan></text><text transform="translate(972 732)" fill="#fff" font-size="60" font-family="FontAwesome5Free-Solid, 'Font Awesome 5 Free'"><tspan x="0" y="0">Campground</tspan></text><text transform="translate(1241 632)" fill="#fff" font-size="60" font-family="FontAwesome5Free-Solid, 'Font Awesome 5 Free'"><tspan x="0" y="0">Tree</tspan></text><text transform="translate(1433 746)" fill="#fff" font-size="60" font-family="FontAwesome5Free-Solid, 'Font Awesome 5 Free'"><tspan x="0" y="0">Tree</tspan></text><text transform="translate(1532 327)" fill="#fff" font-size="60" font-family="FontAwesome5Free-Solid, 'Font Awesome 5 Free'"><tspan x="0" y="0">Tree</tspan></text><text transform="translate(1478 292)" fill="#fff" font-size="60" font-family="FontAwesome5Free-Solid, 'Font Awesome 5 Free'"><tspan x="0" y="0">Tree</tspan></text><text transform="translate(58 602)" fill="#fff" font-size="60" font-family="FontAwesome5Free-Solid, 'Font Awesome 5 Free'"><tspan x="0" y="0">Tree</tspan></text><text transform="translate(1042 507)" fill="#fff" font-size="60" font-family="FontAwesome5Free-Solid, 'Font Awesome 5 Free'"><tspan x="0" y="0">Tree</tspan></text><text transform="translate(217 823)" fill="#fff" font-size="60" font-family="FontAwesome5Free-Solid, 'Font Awesome 5 Free'"><tspan x="0" y="0">Tree</tspan></text><text transform="translate(424 776)" fill="#fff" font-size="60" font-family="FontAwesome5Free-Solid, 'Font Awesome 5 Free'"><tspan x="0" y="0">Tree</tspan></text><g transform="translate(310 298)"><text transform="translate(0 12)" fill="#fff" font-size="60" font-family="FontAwesome5Free-Solid, 'Font Awesome 5 Free'"><tspan x="0" y="53">Map-pin</tspan></text><text transform="translate(49 45)" fill="#fff" font-size="35" font-family="Noteworthy-Bold, Noteworthy" font-weight="700"><tspan x="0" y="0">First Date</tspan></text><text transform="translate(49 73)" fill="#fff" font-size="20" font-family="Noteworthy-Light, Noteworthy" font-weight="300"><tspan x="0" y="0">March 5, 2016</tspan></text></g><path d="M-103.831,43.524s5.319,90.952,68.124,157.725,183.1,109.368,183.1,109.368" transform="translate(431.108 337.882)" fill="none" stroke="#fff" stroke-linecap="round" stroke-width="5"/><g transform="translate(67 401)"><text transform="translate(0 12)" fill="#fff" font-size="60" font-family="FontAwesome5Free-Solid, 'Font Awesome 5 Free'"><tspan x="0" y="53">Map-pin</tspan></text><text transform="translate(49 45)" fill="#fff" font-size="35" font-family="Noteworthy-Bold, Noteworthy" font-weight="700"><tspan x="0" y="0">Met</tspan></text><text transform="translate(49 73)" fill="#fff" font-size="20" font-family="Noteworthy-Light, Noteworthy" font-weight="300"><tspan x="0" y="0">2015</tspan></text></g><path d="M0,64S42.359,28.956,95.859,12.956,214,0,214,0" transform="translate(85.5 337.5)" fill="none" stroke="#fff" stroke-linecap="round" stroke-width="5"/><g transform="translate(589 609)"><text transform="translate(0 12)" fill="#fff" font-size="60" font-family="FontAwesome5Free-Solid, 'Font Awesome 5 Free'"><tspan x="0" y="53">Map-pin</tspan></text><text transform="translate(49 45)" fill="#fff" font-size="35" font-family="Noteworthy-Bold, Noteworthy" font-weight="700"><tspan x="0" y="0">Officially Dating</tspan></text><text transform="translate(49 73)" fill="#fff" font-size="20" font-family="Noteworthy-Light, Noteworthy" font-weight="300"><tspan x="0" y="0">June 12, 2016</tspan></text></g><g transform="translate(1093 259)"><text transform="translate(0 12)" fill="#fff" font-size="60" font-family="FontAwesome5Free-Solid, 'Font Awesome 5 Free'"><tspan x="0" y="53">Map-pin</tspan></text><text transform="translate(49 45)" fill="#fff" font-size="35" font-family="Noteworthy-Bold, Noteworthy" font-weight="700"><tspan x="0" y="0">Engaged</tspan></text><text transform="translate(49 73)" fill="#fff" font-size="20" font-family="Noteworthy-Light, Noteworthy" font-weight="300"><tspan x="0" y="0">December 6, 2020</tspan></text></g><g transform="translate(0 59)"><text transform="translate(1382 336)" fill="#fff" font-size="60" font-family="FontAwesome5Free-Solid, 'Font Awesome 5 Free'"><tspan x="0" y="53">Map-marker-alt</tspan></text><text transform="translate(1441 369)" fill="#fff" font-size="35" font-family="Noteworthy-Bold, Noteworthy" font-weight="700"><tspan x="0" y="0">Married</tspan></text><text transform="translate(1441 397)" fill="#fff" font-size="20" font-family="Noteworthy-Light, Noteworthy" font-weight="300"><tspan x="0" y="0">June 12, 2021</tspan></text></g><path d="M-3.534,396.646S8.266,568.984,65.54,582c23.8,5.41,55.664-17.056,97.925-91.722,129.4-208.369,203.811,88.533,294.7-42.148,39.536-56.846,35.721-162.071-58.5-201.23s-127.857,2.047-156.5-41.449-18.268-72.5,0-121.169,50.636-64.274,73.073-73.506C378.115-14.692,475,0,475,0" transform="translate(607.5 298.5)" fill="none" stroke="#fff" stroke-linecap="round" stroke-width="5"/><path d="M49.123,68.313c51,15.491,205.551,9.529,205.551,9.529" transform="translate(1109.5 344.5)" fill="none" stroke="#fff" stroke-linecap="round" stroke-width="5" stroke-dasharray="20"/><text transform="translate(77 853)" fill="#fff" font-size="60" font-family="FontAwesome5Free-Solid, 'Font Awesome 5 Free'"><tspan x="0" y="0">Tree</tspan></text><text transform="translate(262 680)" fill="#fff" font-size="60" font-family="FontAwesome5Free-Solid, 'Font Awesome 5 Free'"><tspan x="0" y="0">Tree</tspan></text><text transform="translate(307 965)" fill="#fff" font-size="60" font-family="FontAwesome5Free-Solid, 'Font Awesome 5 Free'"><tspan x="0" y="0">Tree</tspan></text><text transform="translate(507 935)" fill="#fff" font-size="60" font-family="FontAwesome5Free-Solid, 'Font Awesome 5 Free'"><tspan x="0" y="0">Tree</tspan></text><text transform="translate(529 515)" fill="#fff" font-size="60" font-family="FontAwesome5Free-Solid, 'Font Awesome 5 Free'"><tspan x="0" y="0">Tree</tspan></text><text transform="translate(54 321)" fill="#fff" font-size="60" font-family="FontAwesome5Free-Solid, 'Font Awesome 5 Free'"><tspan x="0" y="0">Tree</tspan></text><text transform="translate(619 382)" fill="#fff" font-size="60" font-family="FontAwesome5Free-Solid, 'Font Awesome 5 Free'"><tspan x="0" y="0">Tree</tspan></text><text transform="translate(447 241)" fill="#fff" font-size="60" font-family="FontAwesome5Free-Solid, 'Font Awesome 5 Free'"><tspan x="0" y="0">Tree</tspan></text><text transform="translate(765 532)" fill="#fff" font-size="60" font-family="FontAwesome5Free-Solid, 'Font Awesome 5 Free'"><tspan x="0" y="0">Tree</tspan></text><text transform="translate(675 400)" fill="#fff" font-size="60" font-family="FontAwesome5Free-Solid, 'Font Awesome 5 Free'"><tspan x="0" y="0">Tree</tspan></text><path d="M.49.065S-1.877,52.821,49.123,68.313" transform="translate(1109.5 344.5)" fill="none" stroke="#fff" stroke-linecap="round" stroke-width="5"/><circle cx="18" cy="18" r="18" transform="translate(1148 395)" fill="#fff"/><text transform="translate(1482 884)" fill="#fff" font-size="60" font-family="FontAwesome5Free-Solid, 'Font Awesome 5 Free'"><tspan x="0" y="0">Tree</tspan></text><text transform="translate(1251 823)" fill="#fff" font-size="60" font-family="FontAwesome5Free-Solid, 'Font Awesome 5 Free'"><tspan x="0" y="0">Tree</tspan></text><text transform="translate(987 231)" fill="#fff" font-size="60" font-family="FontAwesome5Free-Solid, 'Font Awesome 5 Free'"><tspan x="0" y="0">Tree</tspan></text><text transform="translate(1286 241)" fill="#fff" font-size="60" font-family="FontAwesome5Free-Solid, 'Font Awesome 5 Free'"><tspan x="0" y="0">Tree</tspan></text><text transform="translate(1536 623)" fill="#fff" font-size="60" font-family="FontAwesome5Free-Solid, 'Font Awesome 5 Free'"><tspan x="0" y="0">Tree</tspan></text><text transform="translate(1196 654)" fill="#fff" font-size="60" font-family="FontAwesome5Free-Solid, 'Font Awesome 5 Free'"><tspan x="0" y="0">Tree</tspan></text></g></svg>