<svg xmlns="http://www.w3.org/2000/svg" width="514.497" height="827.333" viewBox="0 0 514.497 827.333"><g transform="translate(-53.503 -191.333)"><g transform="translate(126 395)"><text transform="translate(49 37)" fill="#fff" font-size="35" font-family="Roboto-Bold, Roboto" font-weight="700"><tspan x="0" y="0">First Date</tspan></text><text transform="translate(49 65)" fill="#fff" font-size="20" font-family="Roboto-Light, Roboto" font-weight="300"><tspan x="0" y="0">March 5, 2016</tspan></text><path d="M13.342,37.755V56.42l2.623,3.933a1.43,1.43,0,0,0,2.379,0l2.622-3.933V37.755a20.114,20.114,0,0,1-7.624,0ZM17.154,0A17.154,17.154,0,1,0,34.307,17.154,17.154,17.154,0,0,0,17.154,0Zm0,9.053a8.109,8.109,0,0,0-8.1,8.1,1.429,1.429,0,0,1-2.859,0A10.972,10.972,0,0,1,17.154,6.194a1.429,1.429,0,0,1,0,2.859Z" transform="translate(0 4)" fill="#fff"/></g><path d="M-288.5,137.887s-4.772,47.461,67.613,51.751,72.844,38.5,72.844,38.5" transform="translate(431.108 329.882)" fill="none" stroke="#fff" stroke-linecap="round" stroke-width="5"/><g transform="translate(289 212)"><text transform="translate(49 37)" fill="#fff" font-size="35" font-family="Roboto-Bold, Roboto" font-weight="700"><tspan x="0" y="0">Met</tspan></text><text transform="translate(49 65)" fill="#fff" font-size="20" font-family="Roboto-Light, Roboto" font-weight="300"><tspan x="0" y="0">2015</tspan></text><path d="M13.342,37.755V56.42l2.623,3.933a1.43,1.43,0,0,0,2.379,0l2.622-3.933V37.755a20.114,20.114,0,0,1-7.624,0ZM17.154,0A17.154,17.154,0,1,0,34.307,17.154,17.154,17.154,0,0,0,17.154,0Zm0,9.053a8.109,8.109,0,0,0-8.1,8.1,1.429,1.429,0,0,1-2.859,0A10.972,10.972,0,0,1,17.154,6.194a1.429,1.429,0,0,1,0,2.859Z" transform="translate(0 4)" fill="#fff"/></g><path d="M57.589,70.984s9.755-54.864,50.823-84.54C147.22-41.6,201.3-44.852,208.872-44.781c.143,0,.363.006.363.006" transform="translate(85.959 319.776)" fill="none" stroke="#fff" stroke-linecap="round" stroke-width="5"/><g transform="translate(267 562)"><text transform="translate(49 37)" fill="#fff" font-size="35" font-family="Roboto-Bold, Roboto" font-weight="700"><tspan x="0" y="0">Officially Dating</tspan></text><text transform="translate(49 65)" fill="#fff" font-size="20" font-family="Roboto-Light, Roboto" font-weight="300"><tspan x="0" y="0">June 12, 2016</tspan></text><path d="M13.342,37.755V56.42l2.623,3.933a1.43,1.43,0,0,0,2.379,0l2.622-3.933V37.755a20.114,20.114,0,0,1-7.624,0ZM17.154,0A17.154,17.154,0,1,0,34.307,17.154,17.154,17.154,0,0,0,17.154,0Zm0,9.053a8.109,8.109,0,0,0-8.1,8.1,1.429,1.429,0,0,1-2.859,0A10.972,10.972,0,0,1,17.154,6.194a1.429,1.429,0,0,1,0,2.859Z" transform="translate(0 4)" fill="#fff"/></g><g transform="translate(137 727)"><text transform="translate(49 37)" fill="#fff" font-size="35" font-family="Roboto-Bold, Roboto" font-weight="700"><tspan x="0" y="0">Engaged</tspan></text><text transform="translate(49 65)" fill="#fff" font-size="20" font-family="Roboto-Light, Roboto" font-weight="300"><tspan x="0" y="0">December 6, 2020</tspan></text><path d="M13.342,37.755V56.42l2.623,3.933a1.43,1.43,0,0,0,2.379,0l2.622-3.933V37.755a20.114,20.114,0,0,1-7.624,0ZM17.154,0A17.154,17.154,0,1,0,34.307,17.154,17.154,17.154,0,0,0,17.154,0Zm0,9.053a8.109,8.109,0,0,0-8.1,8.1,1.429,1.429,0,0,1-2.859,0A10.972,10.972,0,0,1,17.154,6.194a1.429,1.429,0,0,1,0,2.859Z" transform="translate(0 4)" fill="#fff"/></g><g transform="translate(-956.426 465)"><path d="M49.123,68.313c68.334,70.075,169.5,68.1,169.5,68.1" transform="translate(1086.896 336.67)" fill="none" stroke="#fff" stroke-linecap="round" stroke-width="5" stroke-dasharray="20"/><path d="M.482.065s-5.229,41.7,25.661,60.226c.049.026.212.109.376.192" transform="translate(1109.5 344.5)" fill="none" stroke="#fff" stroke-linecap="round" stroke-width="5"/><circle cx="18" cy="18" r="18" transform="translate(1125 391.673)" fill="#fff"/></g><path d="M-159.1,137.887s4.4,43.556-62.322,47.493-67.142,35.334-67.142,35.334" transform="translate(442.107 500.791)" fill="none" stroke="#fff" stroke-linecap="round" stroke-width="5"/><g transform="translate(-1023.979 577)"><text transform="translate(1441 369)" fill="#fff" font-size="35" font-family="Roboto-Bold, Roboto" font-weight="700"><tspan x="0" y="0">Married</tspan></text><text transform="translate(1441 397)" fill="#fff" font-size="20" font-family="Roboto-Light, Roboto" font-weight="300"><tspan x="0" y="0">June 12, 2021</tspan></text><path d="M20.84,60.689C3.263,35.207,0,32.592,0,23.227a23.227,23.227,0,1,1,46.454,0c0,9.365-3.263,11.98-20.84,37.462a2.9,2.9,0,0,1-4.774,0Zm2.387-27.784a9.678,9.678,0,1,0-9.678-9.678A9.678,9.678,0,0,0,23.227,32.905Z" transform="translate(1380.979 335.736)" fill="#fff"/></g><path d="M44.828,44.839,35.362,34.117h3.629a2.692,2.692,0,0,0,2.462-1.547,2.612,2.612,0,0,0-.389-2.85L31.808,18.951h3.423A2.685,2.685,0,0,0,37.7,17.338a2.636,2.636,0,0,0-.5-2.853L24.135.566a1.952,1.952,0,0,0-2.763,0L8.3,14.485a2.639,2.639,0,0,0-.5,2.853,2.686,2.686,0,0,0,2.473,1.613H13.7L4.44,29.722a2.616,2.616,0,0,0-.387,2.848,2.692,2.692,0,0,0,2.462,1.546h3.629L.678,44.839a2.619,2.619,0,0,0-.422,2.874,2.748,2.748,0,0,0,2.489,1.57H18.962v2.9l-3.589,5.735a1.9,1.9,0,0,0,1.7,2.744h11.37a1.9,1.9,0,0,0,1.7-2.744L26.545,52.18v-2.9H42.76a2.748,2.748,0,0,0,2.489-1.57A2.619,2.619,0,0,0,44.828,44.839Z" transform="translate(59.499 191.341)" fill="#fff"/><path d="M44.828,44.839,35.362,34.117h3.629a2.692,2.692,0,0,0,2.462-1.547,2.612,2.612,0,0,0-.389-2.85L31.808,18.951h3.423A2.685,2.685,0,0,0,37.7,17.338a2.636,2.636,0,0,0-.5-2.853L24.135.566a1.952,1.952,0,0,0-2.763,0L8.3,14.485a2.639,2.639,0,0,0-.5,2.853,2.686,2.686,0,0,0,2.473,1.613H13.7L4.44,29.722a2.616,2.616,0,0,0-.387,2.848,2.692,2.692,0,0,0,2.462,1.546h3.629L.678,44.839a2.619,2.619,0,0,0-.422,2.874,2.748,2.748,0,0,0,2.489,1.57H18.962v2.9l-3.589,5.735a1.9,1.9,0,0,0,1.7,2.744h11.37a1.9,1.9,0,0,0,1.7-2.744L26.545,52.18v-2.9H42.76a2.748,2.748,0,0,0,2.489-1.57A2.619,2.619,0,0,0,44.828,44.839Z" transform="translate(154.499 221.674)" fill="#fff"/><path d="M44.828,44.839,35.362,34.117h3.629a2.692,2.692,0,0,0,2.462-1.547,2.612,2.612,0,0,0-.389-2.85L31.808,18.951h3.423A2.685,2.685,0,0,0,37.7,17.338a2.636,2.636,0,0,0-.5-2.853L24.135.566a1.952,1.952,0,0,0-2.763,0L8.3,14.485a2.639,2.639,0,0,0-.5,2.853,2.686,2.686,0,0,0,2.473,1.613H13.7L4.44,29.722a2.616,2.616,0,0,0-.387,2.848,2.692,2.692,0,0,0,2.462,1.546h3.629L.678,44.839a2.619,2.619,0,0,0-.422,2.874,2.748,2.748,0,0,0,2.489,1.57H18.962v2.9l-3.589,5.735a1.9,1.9,0,0,0,1.7,2.744h11.37a1.9,1.9,0,0,0,1.7-2.744L26.545,52.18v-2.9H42.76a2.748,2.748,0,0,0,2.489-1.57A2.619,2.619,0,0,0,44.828,44.839Z" transform="translate(425.499 194.341)" fill="#fff"/><path d="M44.828,44.839,35.362,34.117h3.629a2.692,2.692,0,0,0,2.462-1.547,2.612,2.612,0,0,0-.389-2.85L31.808,18.951h3.423A2.685,2.685,0,0,0,37.7,17.338a2.636,2.636,0,0,0-.5-2.853L24.135.566a1.952,1.952,0,0,0-2.763,0L8.3,14.485a2.639,2.639,0,0,0-.5,2.853,2.686,2.686,0,0,0,2.473,1.613H13.7L4.44,29.722a2.616,2.616,0,0,0-.387,2.848,2.692,2.692,0,0,0,2.462,1.546h3.629L.678,44.839a2.619,2.619,0,0,0-.422,2.874,2.748,2.748,0,0,0,2.489,1.57H18.962v2.9l-3.589,5.735a1.9,1.9,0,0,0,1.7,2.744h11.37a1.9,1.9,0,0,0,1.7-2.744L26.545,52.18v-2.9H42.76a2.748,2.748,0,0,0,2.489-1.57A2.619,2.619,0,0,0,44.828,44.839Z" transform="translate(496.996 261.341)" fill="#fff"/><path d="M44.828,44.839,35.362,34.117h3.629a2.692,2.692,0,0,0,2.462-1.547,2.612,2.612,0,0,0-.389-2.85L31.808,18.951h3.423A2.685,2.685,0,0,0,37.7,17.338a2.636,2.636,0,0,0-.5-2.853L24.135.566a1.952,1.952,0,0,0-2.763,0L8.3,14.485a2.639,2.639,0,0,0-.5,2.853,2.686,2.686,0,0,0,2.473,1.613H13.7L4.44,29.722a2.616,2.616,0,0,0-.387,2.848,2.692,2.692,0,0,0,2.462,1.546h3.629L.678,44.839a2.619,2.619,0,0,0-.422,2.874,2.748,2.748,0,0,0,2.489,1.57H18.962v2.9l-3.589,5.735a1.9,1.9,0,0,0,1.7,2.744h11.37a1.9,1.9,0,0,0,1.7-2.744L26.545,52.18v-2.9H42.76a2.748,2.748,0,0,0,2.489-1.57A2.619,2.619,0,0,0,44.828,44.839Z" transform="translate(266.996 317.007)" fill="#fff"/><path d="M44.828,44.839,35.362,34.117h3.629a2.692,2.692,0,0,0,2.462-1.547,2.612,2.612,0,0,0-.389-2.85L31.808,18.951h3.423A2.685,2.685,0,0,0,37.7,17.338a2.636,2.636,0,0,0-.5-2.853L24.135.566a1.952,1.952,0,0,0-2.763,0L8.3,14.485a2.639,2.639,0,0,0-.5,2.853,2.686,2.686,0,0,0,2.473,1.613H13.7L4.44,29.722a2.616,2.616,0,0,0-.387,2.848,2.692,2.692,0,0,0,2.462,1.546h3.629L.678,44.839a2.619,2.619,0,0,0-.422,2.874,2.748,2.748,0,0,0,2.489,1.57H18.962v2.9l-3.589,5.735a1.9,1.9,0,0,0,1.7,2.744h11.37a1.9,1.9,0,0,0,1.7-2.744L26.545,52.18v-2.9H42.76a2.748,2.748,0,0,0,2.489-1.57A2.619,2.619,0,0,0,44.828,44.839Z" transform="translate(368.996 322.341)" fill="#fff"/><path d="M44.828,44.839,35.362,34.117h3.629a2.692,2.692,0,0,0,2.462-1.547,2.612,2.612,0,0,0-.389-2.85L31.808,18.951h3.423A2.685,2.685,0,0,0,37.7,17.338a2.636,2.636,0,0,0-.5-2.853L24.135.566a1.952,1.952,0,0,0-2.763,0L8.3,14.485a2.639,2.639,0,0,0-.5,2.853,2.686,2.686,0,0,0,2.473,1.613H13.7L4.44,29.722a2.616,2.616,0,0,0-.387,2.848,2.692,2.692,0,0,0,2.462,1.546h3.629L.678,44.839a2.619,2.619,0,0,0-.422,2.874,2.748,2.748,0,0,0,2.489,1.57H18.962v2.9l-3.589,5.735a1.9,1.9,0,0,0,1.7,2.744h11.37a1.9,1.9,0,0,0,1.7-2.744L26.545,52.18v-2.9H42.76a2.748,2.748,0,0,0,2.489-1.57A2.619,2.619,0,0,0,44.828,44.839Z" transform="translate(53.747 339.341)" fill="#fff"/><path d="M44.828,44.839,35.362,34.117h3.629a2.692,2.692,0,0,0,2.462-1.547,2.612,2.612,0,0,0-.389-2.85L31.808,18.951h3.423A2.685,2.685,0,0,0,37.7,17.338a2.636,2.636,0,0,0-.5-2.853L24.135.566a1.952,1.952,0,0,0-2.763,0L8.3,14.485a2.639,2.639,0,0,0-.5,2.853,2.686,2.686,0,0,0,2.473,1.613H13.7L4.44,29.722a2.616,2.616,0,0,0-.387,2.848,2.692,2.692,0,0,0,2.462,1.546h3.629L.678,44.839a2.619,2.619,0,0,0-.422,2.874,2.748,2.748,0,0,0,2.489,1.57H18.962v2.9l-3.589,5.735a1.9,1.9,0,0,0,1.7,2.744h11.37a1.9,1.9,0,0,0,1.7-2.744L26.545,52.18v-2.9H42.76a2.748,2.748,0,0,0,2.489-1.57A2.619,2.619,0,0,0,44.828,44.839Z" transform="translate(518.499 490.674)" fill="#fff"/><path d="M44.828,44.839,35.362,34.117h3.629a2.692,2.692,0,0,0,2.462-1.547,2.612,2.612,0,0,0-.389-2.85L31.808,18.951h3.423A2.685,2.685,0,0,0,37.7,17.338a2.636,2.636,0,0,0-.5-2.853L24.135.566a1.952,1.952,0,0,0-2.763,0L8.3,14.485a2.639,2.639,0,0,0-.5,2.853,2.686,2.686,0,0,0,2.473,1.613H13.7L4.44,29.722a2.616,2.616,0,0,0-.387,2.848,2.692,2.692,0,0,0,2.462,1.546h3.629L.678,44.839a2.619,2.619,0,0,0-.422,2.874,2.748,2.748,0,0,0,2.489,1.57H18.962v2.9l-3.589,5.735a1.9,1.9,0,0,0,1.7,2.744h11.37a1.9,1.9,0,0,0,1.7-2.744L26.545,52.18v-2.9H42.76a2.748,2.748,0,0,0,2.489-1.57A2.619,2.619,0,0,0,44.828,44.839Z" transform="translate(76.496 460.341)" fill="#fff"/><path d="M44.828,44.839,35.362,34.117h3.629a2.692,2.692,0,0,0,2.462-1.547,2.612,2.612,0,0,0-.389-2.85L31.808,18.951h3.423A2.685,2.685,0,0,0,37.7,17.338a2.636,2.636,0,0,0-.5-2.853L24.135.566a1.952,1.952,0,0,0-2.763,0L8.3,14.485a2.639,2.639,0,0,0-.5,2.853,2.686,2.686,0,0,0,2.473,1.613H13.7L4.44,29.722a2.616,2.616,0,0,0-.387,2.848,2.692,2.692,0,0,0,2.462,1.546h3.629L.678,44.839a2.619,2.619,0,0,0-.422,2.874,2.748,2.748,0,0,0,2.489,1.57H18.962v2.9l-3.589,5.735a1.9,1.9,0,0,0,1.7,2.744h11.37a1.9,1.9,0,0,0,1.7-2.744L26.545,52.18v-2.9H42.76a2.748,2.748,0,0,0,2.489-1.57A2.619,2.619,0,0,0,44.828,44.839Z" transform="translate(59.996 640.007)" fill="#fff"/><path d="M44.828,44.839,35.362,34.117h3.629a2.692,2.692,0,0,0,2.462-1.547,2.612,2.612,0,0,0-.389-2.85L31.808,18.951h3.423A2.685,2.685,0,0,0,37.7,17.338a2.636,2.636,0,0,0-.5-2.853L24.135.566a1.952,1.952,0,0,0-2.763,0L8.3,14.485a2.639,2.639,0,0,0-.5,2.853,2.686,2.686,0,0,0,2.473,1.613H13.7L4.44,29.722a2.616,2.616,0,0,0-.387,2.848,2.692,2.692,0,0,0,2.462,1.546h3.629L.678,44.839a2.619,2.619,0,0,0-.422,2.874,2.748,2.748,0,0,0,2.489,1.57H18.962v2.9l-3.589,5.735a1.9,1.9,0,0,0,1.7,2.744h11.37a1.9,1.9,0,0,0,1.7-2.744L26.545,52.18v-2.9H42.76a2.748,2.748,0,0,0,2.489-1.57A2.619,2.619,0,0,0,44.828,44.839Z" transform="translate(396.499 688.007)" fill="#fff"/><path d="M44.828,44.839,35.362,34.117h3.629a2.692,2.692,0,0,0,2.462-1.547,2.612,2.612,0,0,0-.389-2.85L31.808,18.951h3.423A2.685,2.685,0,0,0,37.7,17.338a2.636,2.636,0,0,0-.5-2.853L24.135.566a1.952,1.952,0,0,0-2.763,0L8.3,14.485a2.639,2.639,0,0,0-.5,2.853,2.686,2.686,0,0,0,2.473,1.613H13.7L4.44,29.722a2.616,2.616,0,0,0-.387,2.848,2.692,2.692,0,0,0,2.462,1.546h3.629L.678,44.839a2.619,2.619,0,0,0-.422,2.874,2.748,2.748,0,0,0,2.489,1.57H18.962v2.9l-3.589,5.735a1.9,1.9,0,0,0,1.7,2.744h11.37a1.9,1.9,0,0,0,1.7-2.744L26.545,52.18v-2.9H42.76a2.748,2.748,0,0,0,2.489-1.57A2.619,2.619,0,0,0,44.828,44.839Z" transform="translate(509.996 719.34)" fill="#fff"/><path d="M44.828,44.839,35.362,34.117h3.629a2.692,2.692,0,0,0,2.462-1.547,2.612,2.612,0,0,0-.389-2.85L31.808,18.951h3.423A2.685,2.685,0,0,0,37.7,17.338a2.636,2.636,0,0,0-.5-2.853L24.135.566a1.952,1.952,0,0,0-2.763,0L8.3,14.485a2.639,2.639,0,0,0-.5,2.853,2.686,2.686,0,0,0,2.473,1.613H13.7L4.44,29.722a2.616,2.616,0,0,0-.387,2.848,2.692,2.692,0,0,0,2.462,1.546h3.629L.678,44.839a2.619,2.619,0,0,0-.422,2.874,2.748,2.748,0,0,0,2.489,1.57H18.962v2.9l-3.589,5.735a1.9,1.9,0,0,0,1.7,2.744h11.37a1.9,1.9,0,0,0,1.7-2.744L26.545,52.18v-2.9H42.76a2.748,2.748,0,0,0,2.489-1.57A2.619,2.619,0,0,0,44.828,44.839Z" transform="translate(303.996 832.341)" fill="#fff"/><path d="M44.828,44.839,35.362,34.117h3.629a2.692,2.692,0,0,0,2.462-1.547,2.612,2.612,0,0,0-.389-2.85L31.808,18.951h3.423A2.685,2.685,0,0,0,37.7,17.338a2.636,2.636,0,0,0-.5-2.853L24.135.566a1.952,1.952,0,0,0-2.763,0L8.3,14.485a2.639,2.639,0,0,0-.5,2.853,2.686,2.686,0,0,0,2.473,1.613H13.7L4.44,29.722a2.616,2.616,0,0,0-.387,2.848,2.692,2.692,0,0,0,2.462,1.546h3.629L.678,44.839a2.619,2.619,0,0,0-.422,2.874,2.748,2.748,0,0,0,2.489,1.57H18.962v2.9l-3.589,5.735a1.9,1.9,0,0,0,1.7,2.744h11.37a1.9,1.9,0,0,0,1.7-2.744L26.545,52.18v-2.9H42.76a2.748,2.748,0,0,0,2.489-1.57A2.619,2.619,0,0,0,44.828,44.839Z" transform="translate(496.996 840.341)" fill="#fff"/><path d="M44.828,44.839,35.362,34.117h3.629a2.692,2.692,0,0,0,2.462-1.547,2.612,2.612,0,0,0-.389-2.85L31.808,18.951h3.423A2.685,2.685,0,0,0,37.7,17.338a2.636,2.636,0,0,0-.5-2.853L24.135.566a1.952,1.952,0,0,0-2.763,0L8.3,14.485a2.639,2.639,0,0,0-.5,2.853,2.686,2.686,0,0,0,2.473,1.613H13.7L4.44,29.722a2.616,2.616,0,0,0-.387,2.848,2.692,2.692,0,0,0,2.462,1.546h3.629L.678,44.839a2.619,2.619,0,0,0-.422,2.874,2.748,2.748,0,0,0,2.489,1.57H18.962v2.9l-3.589,5.735a1.9,1.9,0,0,0,1.7,2.744h11.37a1.9,1.9,0,0,0,1.7-2.744L26.545,52.18v-2.9H42.76a2.748,2.748,0,0,0,2.489-1.57A2.619,2.619,0,0,0,44.828,44.839Z" transform="translate(53.499 843.5)" fill="#fff"/><path d="M44.828,44.839,35.362,34.117h3.629a2.692,2.692,0,0,0,2.462-1.547,2.612,2.612,0,0,0-.389-2.85L31.808,18.951h3.423A2.685,2.685,0,0,0,37.7,17.338a2.636,2.636,0,0,0-.5-2.853L24.135.566a1.952,1.952,0,0,0-2.763,0L8.3,14.485a2.639,2.639,0,0,0-.5,2.853,2.686,2.686,0,0,0,2.473,1.613H13.7L4.44,29.722a2.616,2.616,0,0,0-.387,2.848,2.692,2.692,0,0,0,2.462,1.546h3.629L.678,44.839a2.619,2.619,0,0,0-.422,2.874,2.748,2.748,0,0,0,2.489,1.57H18.962v2.9l-3.589,5.735a1.9,1.9,0,0,0,1.7,2.744h11.37a1.9,1.9,0,0,0,1.7-2.744L26.545,52.18v-2.9H42.76a2.748,2.748,0,0,0,2.489-1.57A2.619,2.619,0,0,0,44.828,44.839Z" transform="translate(167.308 958.007)" fill="#fff"/><path d="M44.828,44.839,35.362,34.117h3.629a2.692,2.692,0,0,0,2.462-1.547,2.612,2.612,0,0,0-.389-2.85L31.808,18.951h3.423A2.685,2.685,0,0,0,37.7,17.338a2.636,2.636,0,0,0-.5-2.853L24.135.566a1.952,1.952,0,0,0-2.763,0L8.3,14.485a2.639,2.639,0,0,0-.5,2.853,2.686,2.686,0,0,0,2.473,1.613H13.7L4.44,29.722a2.616,2.616,0,0,0-.387,2.848,2.692,2.692,0,0,0,2.462,1.546h3.629L.678,44.839a2.619,2.619,0,0,0-.422,2.874,2.748,2.748,0,0,0,2.489,1.57H18.962v2.9l-3.589,5.735a1.9,1.9,0,0,0,1.7,2.744h11.37a1.9,1.9,0,0,0,1.7-2.744L26.545,52.18v-2.9H42.76a2.748,2.748,0,0,0,2.489-1.57A2.619,2.619,0,0,0,44.828,44.839Z" transform="translate(458.499 389.174)" fill="#fff"/><path d="M78.571,56.409H75.464L45.272,14.825,52,5.564a2.015,2.015,0,0,0-.446-2.814L48.29.384a2.014,2.014,0,0,0-2.814.447L40.293,7.969,35.109.829A2.015,2.015,0,0,0,32.295.382L29.036,2.75a2.014,2.014,0,0,0-.446,2.814l6.725,9.261L5.122,56.409H2.015A2.014,2.014,0,0,0,0,58.423v4.029a2.014,2.014,0,0,0,2.015,2.015H78.571a2.014,2.014,0,0,0,2.015-2.015V58.423A2.014,2.014,0,0,0,78.571,56.409ZM40.293,36.262,54.945,56.409h-29.3Z" transform="translate(120.414 547.268)" fill="#fff"/><path d="M67.478,49.177,36.869,1.562a3.4,3.4,0,0,0-5.722,0L.537,49.177A3.4,3.4,0,0,0,3.4,54.417H64.617a3.4,3.4,0,0,0,2.861-5.24ZM34.008,9.691l9.075,14.116H34.008l-6.8,6.8L23.16,26.564Z" transform="translate(362.495 467.769)" fill="#fff"/></g></svg>