<svg xmlns="http://www.w3.org/2000/svg" width="1527.497" height="793.666" viewBox="0 0 1527.497 793.666"><defs><style>.a,.b,.c{fill:#fff;}.a{font-size:35px;font-family:Roboto-Bold, Roboto;font-weight:700;}.b{font-size:20px;font-family:Roboto-Light, Roboto;font-weight:300;}.d,.e{fill:none;stroke:#fff;stroke-linecap:round;stroke-width:5px;}.e{stroke-dasharray:20;}</style></defs><g transform="translate(-54 -178.334)"><g transform="translate(310 306)"><text class="a" transform="translate(49 37)"><tspan x="0" y="0">First Date</tspan></text><text class="b" transform="translate(49 65)"><tspan x="0" y="0">March 5, 2016</tspan></text><path class="c" d="M13.342,37.755V56.42l2.623,3.933a1.43,1.43,0,0,0,2.379,0l2.622-3.933V37.755a20.114,20.114,0,0,1-7.624,0ZM17.154,0A17.154,17.154,0,1,0,34.307,17.154,17.154,17.154,0,0,0,17.154,0Zm0,9.053a8.109,8.109,0,0,0-8.1,8.1,1.429,1.429,0,0,1-2.859,0A10.972,10.972,0,0,1,17.154,6.194a1.429,1.429,0,0,1,0,2.859Z" transform="translate(0 4)"/></g><path class="d" d="M-103.831,43.524s5.319,90.952,68.124,157.725,183.1,109.368,183.1,109.368" transform="translate(431.108 337.882)"/><path class="d" d="M0,64S42.359,28.956,95.859,12.956,214,0,214,0" transform="translate(85.5 337.5)"/><g transform="translate(589 617)"><text class="a" transform="translate(49 37)"><tspan x="0" y="0">Officially Dating</tspan></text><text class="b" transform="translate(49 65)"><tspan x="0" y="0">June 12, 2016</tspan></text><path class="c" d="M13.342,37.755V56.42l2.623,3.933a1.43,1.43,0,0,0,2.379,0l2.622-3.933V37.755a20.114,20.114,0,0,1-7.624,0ZM17.154,0A17.154,17.154,0,1,0,34.307,17.154,17.154,17.154,0,0,0,17.154,0Zm0,9.053a8.109,8.109,0,0,0-8.1,8.1,1.429,1.429,0,0,1-2.859,0A10.972,10.972,0,0,1,17.154,6.194a1.429,1.429,0,0,1,0,2.859Z" transform="translate(0 4)"/></g><g transform="translate(1093 267)"><text class="a" transform="translate(49 37)"><tspan x="0" y="0">Engaged</tspan></text><text class="b" transform="translate(49 65)"><tspan x="0" y="0">December 6, 2020</tspan></text><path class="c" d="M13.342,37.755V56.42l2.623,3.933a1.43,1.43,0,0,0,2.379,0l2.622-3.933V37.755a20.114,20.114,0,0,1-7.624,0ZM17.154,0A17.154,17.154,0,1,0,34.307,17.154,17.154,17.154,0,0,0,17.154,0Zm0,9.053a8.109,8.109,0,0,0-8.1,8.1,1.429,1.429,0,0,1-2.859,0A10.972,10.972,0,0,1,17.154,6.194a1.429,1.429,0,0,1,0,2.859Z" transform="translate(0 4)"/></g><g transform="translate(0 59)"><text class="a" transform="translate(1441 369)"><tspan x="0" y="0">Married</tspan></text><text class="b" transform="translate(1441 397)"><tspan x="0" y="0">June 12, 2021</tspan></text><path class="c" d="M20.84,60.689C3.263,35.207,0,32.592,0,23.227a23.227,23.227,0,1,1,46.454,0c0,9.365-3.263,11.98-20.84,37.462a2.9,2.9,0,0,1-4.774,0Zm2.387-27.784a9.678,9.678,0,1,0-9.678-9.678A9.678,9.678,0,0,0,23.227,32.905Z" transform="translate(1380.979 335.736)"/></g><path class="d" d="M-.679,396.517S8.266,568.984,65.54,582c23.8,5.41,55.664-17.056,97.925-91.722,129.4-208.369,203.811,88.533,294.7-42.148,39.536-56.846,53.937-231.588-58.5-201.23S71.119,93.073,316.228,10.775C378.115-14.692,475,0,475,0" transform="translate(607.5 298.5)"/><path class="e" d="M49.123,68.313c51,15.491,205.551,9.529,205.551,9.529" transform="translate(1109.5 344.5)"/><path class="d" d="M.49.065S-1.877,52.821,49.123,68.313" transform="translate(1109.5 344.5)"/><circle class="c" cx="18" cy="18" r="18" transform="translate(1148 395)"/><path class="c" d="M44.828,44.839,35.362,34.117h3.629a2.692,2.692,0,0,0,2.462-1.547,2.612,2.612,0,0,0-.389-2.85L31.808,18.951h3.423A2.685,2.685,0,0,0,37.7,17.338a2.636,2.636,0,0,0-.5-2.853L24.135.566a1.952,1.952,0,0,0-2.763,0L8.3,14.485a2.639,2.639,0,0,0-.5,2.853,2.686,2.686,0,0,0,2.473,1.613H13.7L4.44,29.722a2.616,2.616,0,0,0-.387,2.848,2.692,2.692,0,0,0,2.462,1.546h3.629L.678,44.839a2.619,2.619,0,0,0-.422,2.874,2.748,2.748,0,0,0,2.489,1.57H18.962v2.9l-3.589,5.735a1.9,1.9,0,0,0,1.7,2.744h11.37a1.9,1.9,0,0,0,1.7-2.744L26.545,52.18v-2.9H42.76a2.748,2.748,0,0,0,2.489-1.57A2.619,2.619,0,0,0,44.828,44.839Z" transform="translate(1070.996 861.341)"/><path class="c" d="M44.828,44.839,35.362,34.117h3.629a2.692,2.692,0,0,0,2.462-1.547,2.612,2.612,0,0,0-.389-2.85L31.808,18.951h3.423A2.685,2.685,0,0,0,37.7,17.338a2.636,2.636,0,0,0-.5-2.853L24.135.566a1.952,1.952,0,0,0-2.763,0L8.3,14.485a2.639,2.639,0,0,0-.5,2.853,2.686,2.686,0,0,0,2.473,1.613H13.7L4.44,29.722a2.616,2.616,0,0,0-.387,2.848,2.692,2.692,0,0,0,2.462,1.546h3.629L.678,44.839a2.619,2.619,0,0,0-.422,2.874,2.748,2.748,0,0,0,2.489,1.57H18.962v2.9l-3.589,5.735a1.9,1.9,0,0,0,1.7,2.744h11.37a1.9,1.9,0,0,0,1.7-2.744L26.545,52.18v-2.9H42.76a2.748,2.748,0,0,0,2.489-1.57A2.619,2.619,0,0,0,44.828,44.839Z" transform="translate(831.996 852.341)"/><path class="c" d="M44.828,44.839,35.362,34.117h3.629a2.692,2.692,0,0,0,2.462-1.547,2.612,2.612,0,0,0-.389-2.85L31.808,18.951h3.423A2.685,2.685,0,0,0,37.7,17.338a2.636,2.636,0,0,0-.5-2.853L24.135.566a1.952,1.952,0,0,0-2.763,0L8.3,14.485a2.639,2.639,0,0,0-.5,2.853,2.686,2.686,0,0,0,2.473,1.613H13.7L4.44,29.722a2.616,2.616,0,0,0-.387,2.848,2.692,2.692,0,0,0,2.462,1.546h3.629L.678,44.839a2.619,2.619,0,0,0-.422,2.874,2.748,2.748,0,0,0,2.489,1.57H18.962v2.9l-3.589,5.735a1.9,1.9,0,0,0,1.7,2.744h11.37a1.9,1.9,0,0,0,1.7-2.744L26.545,52.18v-2.9H42.76a2.748,2.748,0,0,0,2.489-1.57A2.619,2.619,0,0,0,44.828,44.839Z" transform="translate(505.996 881.341)"/><path class="c" d="M44.828,44.839,35.362,34.117h3.629a2.692,2.692,0,0,0,2.462-1.547,2.612,2.612,0,0,0-.389-2.85L31.808,18.951h3.423A2.685,2.685,0,0,0,37.7,17.338a2.636,2.636,0,0,0-.5-2.853L24.135.566a1.952,1.952,0,0,0-2.763,0L8.3,14.485a2.639,2.639,0,0,0-.5,2.853,2.686,2.686,0,0,0,2.473,1.613H13.7L4.44,29.722a2.616,2.616,0,0,0-.387,2.848,2.692,2.692,0,0,0,2.462,1.546h3.629L.678,44.839a2.619,2.619,0,0,0-.422,2.874,2.748,2.748,0,0,0,2.489,1.57H18.962v2.9l-3.589,5.735a1.9,1.9,0,0,0,1.7,2.744h11.37a1.9,1.9,0,0,0,1.7-2.744L26.545,52.18v-2.9H42.76a2.748,2.748,0,0,0,2.489-1.57A2.619,2.619,0,0,0,44.828,44.839Z" transform="translate(304.996 911.341)"/><path class="c" d="M44.828,44.839,35.362,34.117h3.629a2.692,2.692,0,0,0,2.462-1.547,2.612,2.612,0,0,0-.389-2.85L31.808,18.951h3.423A2.685,2.685,0,0,0,37.7,17.338a2.636,2.636,0,0,0-.5-2.853L24.135.566a1.952,1.952,0,0,0-2.763,0L8.3,14.485a2.639,2.639,0,0,0-.5,2.853,2.686,2.686,0,0,0,2.473,1.613H13.7L4.44,29.722a2.616,2.616,0,0,0-.387,2.848,2.692,2.692,0,0,0,2.462,1.546h3.629L.678,44.839a2.619,2.619,0,0,0-.422,2.874,2.748,2.748,0,0,0,2.489,1.57H18.962v2.9l-3.589,5.735a1.9,1.9,0,0,0,1.7,2.744h11.37a1.9,1.9,0,0,0,1.7-2.744L26.545,52.18v-2.9H42.76a2.748,2.748,0,0,0,2.489-1.57A2.619,2.619,0,0,0,44.828,44.839Z" transform="translate(75.996 723.341)"/><path class="c" d="M44.828,44.839,35.362,34.117h3.629a2.692,2.692,0,0,0,2.462-1.547,2.612,2.612,0,0,0-.389-2.85L31.808,18.951h3.423A2.685,2.685,0,0,0,37.7,17.338a2.636,2.636,0,0,0-.5-2.853L24.135.566a1.952,1.952,0,0,0-2.763,0L8.3,14.485a2.639,2.639,0,0,0-.5,2.853,2.686,2.686,0,0,0,2.473,1.613H13.7L4.44,29.722a2.616,2.616,0,0,0-.387,2.848,2.692,2.692,0,0,0,2.462,1.546h3.629L.678,44.839a2.619,2.619,0,0,0-.422,2.874,2.748,2.748,0,0,0,2.489,1.57H18.962v2.9l-3.589,5.735a1.9,1.9,0,0,0,1.7,2.744h11.37a1.9,1.9,0,0,0,1.7-2.744L26.545,52.18v-2.9H42.76a2.748,2.748,0,0,0,2.489-1.57A2.619,2.619,0,0,0,44.828,44.839Z" transform="translate(216.996 769.341)"/><path class="c" d="M44.828,44.839,35.362,34.117h3.629a2.692,2.692,0,0,0,2.462-1.547,2.612,2.612,0,0,0-.389-2.85L31.808,18.951h3.423A2.685,2.685,0,0,0,37.7,17.338a2.636,2.636,0,0,0-.5-2.853L24.135.566a1.952,1.952,0,0,0-2.763,0L8.3,14.485a2.639,2.639,0,0,0-.5,2.853,2.686,2.686,0,0,0,2.473,1.613H13.7L4.44,29.722a2.616,2.616,0,0,0-.387,2.848,2.692,2.692,0,0,0,2.462,1.546h3.629L.678,44.839a2.619,2.619,0,0,0-.422,2.874,2.748,2.748,0,0,0,2.489,1.57H18.962v2.9l-3.589,5.735a1.9,1.9,0,0,0,1.7,2.744h11.37a1.9,1.9,0,0,0,1.7-2.744L26.545,52.18v-2.9H42.76a2.748,2.748,0,0,0,2.489-1.57A2.619,2.619,0,0,0,44.828,44.839Z" transform="translate(85.996 897.341)"/><path class="c" d="M44.828,44.839,35.362,34.117h3.629a2.692,2.692,0,0,0,2.462-1.547,2.612,2.612,0,0,0-.389-2.85L31.808,18.951h3.423A2.685,2.685,0,0,0,37.7,17.338a2.636,2.636,0,0,0-.5-2.853L24.135.566a1.952,1.952,0,0,0-2.763,0L8.3,14.485a2.639,2.639,0,0,0-.5,2.853,2.686,2.686,0,0,0,2.473,1.613H13.7L4.44,29.722a2.616,2.616,0,0,0-.387,2.848,2.692,2.692,0,0,0,2.462,1.546h3.629L.678,44.839a2.619,2.619,0,0,0-.422,2.874,2.748,2.748,0,0,0,2.489,1.57H18.962v2.9l-3.589,5.735a1.9,1.9,0,0,0,1.7,2.744h11.37a1.9,1.9,0,0,0,1.7-2.744L26.545,52.18v-2.9H42.76a2.748,2.748,0,0,0,2.489-1.57A2.619,2.619,0,0,0,44.828,44.839Z" transform="translate(423.996 723.341)"/><path class="c" d="M44.828,44.839,35.362,34.117h3.629a2.692,2.692,0,0,0,2.462-1.547,2.612,2.612,0,0,0-.389-2.85L31.808,18.951h3.423A2.685,2.685,0,0,0,37.7,17.338a2.636,2.636,0,0,0-.5-2.853L24.135.566a1.952,1.952,0,0,0-2.763,0L8.3,14.485a2.639,2.639,0,0,0-.5,2.853,2.686,2.686,0,0,0,2.473,1.613H13.7L4.44,29.722a2.616,2.616,0,0,0-.387,2.848,2.692,2.692,0,0,0,2.462,1.546h3.629L.678,44.839a2.619,2.619,0,0,0-.422,2.874,2.748,2.748,0,0,0,2.489,1.57H18.962v2.9l-3.589,5.735a1.9,1.9,0,0,0,1.7,2.744h11.37a1.9,1.9,0,0,0,1.7-2.744L26.545,52.18v-2.9H42.76a2.748,2.748,0,0,0,2.489-1.57A2.619,2.619,0,0,0,44.828,44.839Z" transform="translate(261.996 628.341)"/><path class="c" d="M44.828,44.839,35.362,34.117h3.629a2.692,2.692,0,0,0,2.462-1.547,2.612,2.612,0,0,0-.389-2.85L31.808,18.951h3.423A2.685,2.685,0,0,0,37.7,17.338a2.636,2.636,0,0,0-.5-2.853L24.135.566a1.952,1.952,0,0,0-2.763,0L8.3,14.485a2.639,2.639,0,0,0-.5,2.853,2.686,2.686,0,0,0,2.473,1.613H13.7L4.44,29.722a2.616,2.616,0,0,0-.387,2.848,2.692,2.692,0,0,0,2.462,1.546h3.629L.678,44.839a2.619,2.619,0,0,0-.422,2.874,2.748,2.748,0,0,0,2.489,1.57H18.962v2.9l-3.589,5.735a1.9,1.9,0,0,0,1.7,2.744h11.37a1.9,1.9,0,0,0,1.7-2.744L26.545,52.18v-2.9H42.76a2.748,2.748,0,0,0,2.489-1.57A2.619,2.619,0,0,0,44.828,44.839Z" transform="translate(309.996 588.341)"/><path class="c" d="M44.828,44.839,35.362,34.117h3.629a2.692,2.692,0,0,0,2.462-1.547,2.612,2.612,0,0,0-.389-2.85L31.808,18.951h3.423A2.685,2.685,0,0,0,37.7,17.338a2.636,2.636,0,0,0-.5-2.853L24.135.566a1.952,1.952,0,0,0-2.763,0L8.3,14.485a2.639,2.639,0,0,0-.5,2.853,2.686,2.686,0,0,0,2.473,1.613H13.7L4.44,29.722a2.616,2.616,0,0,0-.387,2.848,2.692,2.692,0,0,0,2.462,1.546h3.629L.678,44.839a2.619,2.619,0,0,0-.422,2.874,2.748,2.748,0,0,0,2.489,1.57H18.962v2.9l-3.589,5.735a1.9,1.9,0,0,0,1.7,2.744h11.37a1.9,1.9,0,0,0,1.7-2.744L26.545,52.18v-2.9H42.76a2.748,2.748,0,0,0,2.489-1.57A2.619,2.619,0,0,0,44.828,44.839Z" transform="translate(253.996 556.341)"/><path class="c" d="M44.828,44.839,35.362,34.117h3.629a2.692,2.692,0,0,0,2.462-1.547,2.612,2.612,0,0,0-.389-2.85L31.808,18.951h3.423A2.685,2.685,0,0,0,37.7,17.338a2.636,2.636,0,0,0-.5-2.853L24.135.566a1.952,1.952,0,0,0-2.763,0L8.3,14.485a2.639,2.639,0,0,0-.5,2.853,2.686,2.686,0,0,0,2.473,1.613H13.7L4.44,29.722a2.616,2.616,0,0,0-.387,2.848,2.692,2.692,0,0,0,2.462,1.546h3.629L.678,44.839a2.619,2.619,0,0,0-.422,2.874,2.748,2.748,0,0,0,2.489,1.57H18.962v2.9l-3.589,5.735a1.9,1.9,0,0,0,1.7,2.744h11.37a1.9,1.9,0,0,0,1.7-2.744L26.545,52.18v-2.9H42.76a2.748,2.748,0,0,0,2.489-1.57A2.619,2.619,0,0,0,44.828,44.839Z" transform="translate(57.996 549.341)"/><path class="c" d="M44.828,44.839,35.362,34.117h3.629a2.692,2.692,0,0,0,2.462-1.547,2.612,2.612,0,0,0-.389-2.85L31.808,18.951h3.423A2.685,2.685,0,0,0,37.7,17.338a2.636,2.636,0,0,0-.5-2.853L24.135.566a1.952,1.952,0,0,0-2.763,0L8.3,14.485a2.639,2.639,0,0,0-.5,2.853,2.686,2.686,0,0,0,2.473,1.613H13.7L4.44,29.722a2.616,2.616,0,0,0-.387,2.848,2.692,2.692,0,0,0,2.462,1.546h3.629L.678,44.839a2.619,2.619,0,0,0-.422,2.874,2.748,2.748,0,0,0,2.489,1.57H18.962v2.9l-3.589,5.735a1.9,1.9,0,0,0,1.7,2.744h11.37a1.9,1.9,0,0,0,1.7-2.744L26.545,52.18v-2.9H42.76a2.748,2.748,0,0,0,2.489-1.57A2.619,2.619,0,0,0,44.828,44.839Z" transform="translate(53.996 269.341)"/><path class="c" d="M44.828,44.839,35.362,34.117h3.629a2.692,2.692,0,0,0,2.462-1.547,2.612,2.612,0,0,0-.389-2.85L31.808,18.951h3.423A2.685,2.685,0,0,0,37.7,17.338a2.636,2.636,0,0,0-.5-2.853L24.135.566a1.952,1.952,0,0,0-2.763,0L8.3,14.485a2.639,2.639,0,0,0-.5,2.853,2.686,2.686,0,0,0,2.473,1.613H13.7L4.44,29.722a2.616,2.616,0,0,0-.387,2.848,2.692,2.692,0,0,0,2.462,1.546h3.629L.678,44.839a2.619,2.619,0,0,0-.422,2.874,2.748,2.748,0,0,0,2.489,1.57H18.962v2.9l-3.589,5.735a1.9,1.9,0,0,0,1.7,2.744h11.37a1.9,1.9,0,0,0,1.7-2.744L26.545,52.18v-2.9H42.76a2.748,2.748,0,0,0,2.489-1.57A2.619,2.619,0,0,0,44.828,44.839Z" transform="translate(121.996 187.341)"/><path class="c" d="M44.828,44.839,35.362,34.117h3.629a2.692,2.692,0,0,0,2.462-1.547,2.612,2.612,0,0,0-.389-2.85L31.808,18.951h3.423A2.685,2.685,0,0,0,37.7,17.338a2.636,2.636,0,0,0-.5-2.853L24.135.566a1.952,1.952,0,0,0-2.763,0L8.3,14.485a2.639,2.639,0,0,0-.5,2.853,2.686,2.686,0,0,0,2.473,1.613H13.7L4.44,29.722a2.616,2.616,0,0,0-.387,2.848,2.692,2.692,0,0,0,2.462,1.546h3.629L.678,44.839a2.619,2.619,0,0,0-.422,2.874,2.748,2.748,0,0,0,2.489,1.57H18.962v2.9l-3.589,5.735a1.9,1.9,0,0,0,1.7,2.744h11.37a1.9,1.9,0,0,0,1.7-2.744L26.545,52.18v-2.9H42.76a2.748,2.748,0,0,0,2.489-1.57A2.619,2.619,0,0,0,44.828,44.839Z" transform="translate(354.996 207.341)"/><path class="c" d="M44.828,44.839,35.362,34.117h3.629a2.692,2.692,0,0,0,2.462-1.547,2.612,2.612,0,0,0-.389-2.85L31.808,18.951h3.423A2.685,2.685,0,0,0,37.7,17.338a2.636,2.636,0,0,0-.5-2.853L24.135.566a1.952,1.952,0,0,0-2.763,0L8.3,14.485a2.639,2.639,0,0,0-.5,2.853,2.686,2.686,0,0,0,2.473,1.613H13.7L4.44,29.722a2.616,2.616,0,0,0-.387,2.848,2.692,2.692,0,0,0,2.462,1.546h3.629L.678,44.839a2.619,2.619,0,0,0-.422,2.874,2.748,2.748,0,0,0,2.489,1.57H18.962v2.9l-3.589,5.735a1.9,1.9,0,0,0,1.7,2.744h11.37a1.9,1.9,0,0,0,1.7-2.744L26.545,52.18v-2.9H42.76a2.748,2.748,0,0,0,2.489-1.57A2.619,2.619,0,0,0,44.828,44.839Z" transform="translate(446.996 187.341)"/><path class="c" d="M44.828,44.839,35.362,34.117h3.629a2.692,2.692,0,0,0,2.462-1.547,2.612,2.612,0,0,0-.389-2.85L31.808,18.951h3.423A2.685,2.685,0,0,0,37.7,17.338a2.636,2.636,0,0,0-.5-2.853L24.135.566a1.952,1.952,0,0,0-2.763,0L8.3,14.485a2.639,2.639,0,0,0-.5,2.853,2.686,2.686,0,0,0,2.473,1.613H13.7L4.44,29.722a2.616,2.616,0,0,0-.387,2.848,2.692,2.692,0,0,0,2.462,1.546h3.629L.678,44.839a2.619,2.619,0,0,0-.422,2.874,2.748,2.748,0,0,0,2.489,1.57H18.962v2.9l-3.589,5.735a1.9,1.9,0,0,0,1.7,2.744h11.37a1.9,1.9,0,0,0,1.7-2.744L26.545,52.18v-2.9H42.76a2.748,2.748,0,0,0,2.489-1.57A2.619,2.619,0,0,0,44.828,44.839Z" transform="translate(53.996 269.341)"/><path class="c" d="M44.828,44.839,35.362,34.117h3.629a2.692,2.692,0,0,0,2.462-1.547,2.612,2.612,0,0,0-.389-2.85L31.808,18.951h3.423A2.685,2.685,0,0,0,37.7,17.338a2.636,2.636,0,0,0-.5-2.853L24.135.566a1.952,1.952,0,0,0-2.763,0L8.3,14.485a2.639,2.639,0,0,0-.5,2.853,2.686,2.686,0,0,0,2.473,1.613H13.7L4.44,29.722a2.616,2.616,0,0,0-.387,2.848,2.692,2.692,0,0,0,2.462,1.546h3.629L.678,44.839a2.619,2.619,0,0,0-.422,2.874,2.748,2.748,0,0,0,2.489,1.57H18.962v2.9l-3.589,5.735a1.9,1.9,0,0,0,1.7,2.744h11.37a1.9,1.9,0,0,0,1.7-2.744L26.545,52.18v-2.9H42.76a2.748,2.748,0,0,0,2.489-1.57A2.619,2.619,0,0,0,44.828,44.839Z" transform="translate(528.996 462.341)"/><path class="c" d="M44.828,44.839,35.362,34.117h3.629a2.692,2.692,0,0,0,2.462-1.547,2.612,2.612,0,0,0-.389-2.85L31.808,18.951h3.423A2.685,2.685,0,0,0,37.7,17.338a2.636,2.636,0,0,0-.5-2.853L24.135.566a1.952,1.952,0,0,0-2.763,0L8.3,14.485a2.639,2.639,0,0,0-.5,2.853,2.686,2.686,0,0,0,2.473,1.613H13.7L4.44,29.722a2.616,2.616,0,0,0-.387,2.848,2.692,2.692,0,0,0,2.462,1.546h3.629L.678,44.839a2.619,2.619,0,0,0-.422,2.874,2.748,2.748,0,0,0,2.489,1.57H18.962v2.9l-3.589,5.735a1.9,1.9,0,0,0,1.7,2.744h11.37a1.9,1.9,0,0,0,1.7-2.744L26.545,52.18v-2.9H42.76a2.748,2.748,0,0,0,2.489-1.57A2.619,2.619,0,0,0,44.828,44.839Z" transform="translate(618.996 329.341)"/><path class="c" d="M44.828,44.839,35.362,34.117h3.629a2.692,2.692,0,0,0,2.462-1.547,2.612,2.612,0,0,0-.389-2.85L31.808,18.951h3.423A2.685,2.685,0,0,0,37.7,17.338a2.636,2.636,0,0,0-.5-2.853L24.135.566a1.952,1.952,0,0,0-2.763,0L8.3,14.485a2.639,2.639,0,0,0-.5,2.853,2.686,2.686,0,0,0,2.473,1.613H13.7L4.44,29.722a2.616,2.616,0,0,0-.387,2.848,2.692,2.692,0,0,0,2.462,1.546h3.629L.678,44.839a2.619,2.619,0,0,0-.422,2.874,2.748,2.748,0,0,0,2.489,1.57H18.962v2.9l-3.589,5.735a1.9,1.9,0,0,0,1.7,2.744h11.37a1.9,1.9,0,0,0,1.7-2.744L26.545,52.18v-2.9H42.76a2.748,2.748,0,0,0,2.489-1.57A2.619,2.619,0,0,0,44.828,44.839Z" transform="translate(674.996 347.341)"/><path class="c" d="M44.828,44.839,35.362,34.117h3.629a2.692,2.692,0,0,0,2.462-1.547,2.612,2.612,0,0,0-.389-2.85L31.808,18.951h3.423A2.685,2.685,0,0,0,37.7,17.338a2.636,2.636,0,0,0-.5-2.853L24.135.566a1.952,1.952,0,0,0-2.763,0L8.3,14.485a2.639,2.639,0,0,0-.5,2.853,2.686,2.686,0,0,0,2.473,1.613H13.7L4.44,29.722a2.616,2.616,0,0,0-.387,2.848,2.692,2.692,0,0,0,2.462,1.546h3.629L.678,44.839a2.619,2.619,0,0,0-.422,2.874,2.748,2.748,0,0,0,2.489,1.57H18.962v2.9l-3.589,5.735a1.9,1.9,0,0,0,1.7,2.744h11.37a1.9,1.9,0,0,0,1.7-2.744L26.545,52.18v-2.9H42.76a2.748,2.748,0,0,0,2.489-1.57A2.619,2.619,0,0,0,44.828,44.839Z" transform="translate(764.996 479.341)"/><path class="c" d="M44.828,44.839,35.362,34.117h3.629a2.692,2.692,0,0,0,2.462-1.547,2.612,2.612,0,0,0-.389-2.85L31.808,18.951h3.423A2.685,2.685,0,0,0,37.7,17.338a2.636,2.636,0,0,0-.5-2.853L24.135.566a1.952,1.952,0,0,0-2.763,0L8.3,14.485a2.639,2.639,0,0,0-.5,2.853,2.686,2.686,0,0,0,2.473,1.613H13.7L4.44,29.722a2.616,2.616,0,0,0-.387,2.848,2.692,2.692,0,0,0,2.462,1.546h3.629L.678,44.839a2.619,2.619,0,0,0-.422,2.874,2.748,2.748,0,0,0,2.489,1.57H18.962v2.9l-3.589,5.735a1.9,1.9,0,0,0,1.7,2.744h11.37a1.9,1.9,0,0,0,1.7-2.744L26.545,52.18v-2.9H42.76a2.748,2.748,0,0,0,2.489-1.57A2.619,2.619,0,0,0,44.828,44.839Z" transform="translate(986.996 178.341)"/><path class="c" d="M44.828,44.839,35.362,34.117h3.629a2.692,2.692,0,0,0,2.462-1.547,2.612,2.612,0,0,0-.389-2.85L31.808,18.951h3.423A2.685,2.685,0,0,0,37.7,17.338a2.636,2.636,0,0,0-.5-2.853L24.135.566a1.952,1.952,0,0,0-2.763,0L8.3,14.485a2.639,2.639,0,0,0-.5,2.853,2.686,2.686,0,0,0,2.473,1.613H13.7L4.44,29.722a2.616,2.616,0,0,0-.387,2.848,2.692,2.692,0,0,0,2.462,1.546h3.629L.678,44.839a2.619,2.619,0,0,0-.422,2.874,2.748,2.748,0,0,0,2.489,1.57H18.962v2.9l-3.589,5.735a1.9,1.9,0,0,0,1.7,2.744h11.37a1.9,1.9,0,0,0,1.7-2.744L26.545,52.18v-2.9H42.76a2.748,2.748,0,0,0,2.489-1.57A2.619,2.619,0,0,0,44.828,44.839Z" transform="translate(1285.996 188.341)"/><path class="c" d="M44.828,44.839,35.362,34.117h3.629a2.692,2.692,0,0,0,2.462-1.547,2.612,2.612,0,0,0-.389-2.85L31.808,18.951h3.423A2.685,2.685,0,0,0,37.7,17.338a2.636,2.636,0,0,0-.5-2.853L24.135.566a1.952,1.952,0,0,0-2.763,0L8.3,14.485a2.639,2.639,0,0,0-.5,2.853,2.686,2.686,0,0,0,2.473,1.613H13.7L4.44,29.722a2.616,2.616,0,0,0-.387,2.848,2.692,2.692,0,0,0,2.462,1.546h3.629L.678,44.839a2.619,2.619,0,0,0-.422,2.874,2.748,2.748,0,0,0,2.489,1.57H18.962v2.9l-3.589,5.735a1.9,1.9,0,0,0,1.7,2.744h11.37a1.9,1.9,0,0,0,1.7-2.744L26.545,52.18v-2.9H42.76a2.748,2.748,0,0,0,2.489-1.57A2.619,2.619,0,0,0,44.828,44.839Z" transform="translate(1041.996 454.341)"/><path class="c" d="M44.828,44.839,35.362,34.117h3.629a2.692,2.692,0,0,0,2.462-1.547,2.612,2.612,0,0,0-.389-2.85L31.808,18.951h3.423A2.685,2.685,0,0,0,37.7,17.338a2.636,2.636,0,0,0-.5-2.853L24.135.566a1.952,1.952,0,0,0-2.763,0L8.3,14.485a2.639,2.639,0,0,0-.5,2.853,2.686,2.686,0,0,0,2.473,1.613H13.7L4.44,29.722a2.616,2.616,0,0,0-.387,2.848,2.692,2.692,0,0,0,2.462,1.546h3.629L.678,44.839a2.619,2.619,0,0,0-.422,2.874,2.748,2.748,0,0,0,2.489,1.57H18.962v2.9l-3.589,5.735a1.9,1.9,0,0,0,1.7,2.744h11.37a1.9,1.9,0,0,0,1.7-2.744L26.545,52.18v-2.9H42.76a2.748,2.748,0,0,0,2.489-1.57A2.619,2.619,0,0,0,44.828,44.839Z" transform="translate(1195.996 601.341)"/><path class="c" d="M44.828,44.839,35.362,34.117h3.629a2.692,2.692,0,0,0,2.462-1.547,2.612,2.612,0,0,0-.389-2.85L31.808,18.951h3.423A2.685,2.685,0,0,0,37.7,17.338a2.636,2.636,0,0,0-.5-2.853L24.135.566a1.952,1.952,0,0,0-2.763,0L8.3,14.485a2.639,2.639,0,0,0-.5,2.853,2.686,2.686,0,0,0,2.473,1.613H13.7L4.44,29.722a2.616,2.616,0,0,0-.387,2.848,2.692,2.692,0,0,0,2.462,1.546h3.629L.678,44.839a2.619,2.619,0,0,0-.422,2.874,2.748,2.748,0,0,0,2.489,1.57H18.962v2.9l-3.589,5.735a1.9,1.9,0,0,0,1.7,2.744h11.37a1.9,1.9,0,0,0,1.7-2.744L26.545,52.18v-2.9H42.76a2.748,2.748,0,0,0,2.489-1.57A2.619,2.619,0,0,0,44.828,44.839Z" transform="translate(1239.996 579.341)"/><path class="c" d="M44.828,44.839,35.362,34.117h3.629a2.692,2.692,0,0,0,2.462-1.547,2.612,2.612,0,0,0-.389-2.85L31.808,18.951h3.423A2.685,2.685,0,0,0,37.7,17.338a2.636,2.636,0,0,0-.5-2.853L24.135.566a1.952,1.952,0,0,0-2.763,0L8.3,14.485a2.639,2.639,0,0,0-.5,2.853,2.686,2.686,0,0,0,2.473,1.613H13.7L4.44,29.722a2.616,2.616,0,0,0-.387,2.848,2.692,2.692,0,0,0,2.462,1.546h3.629L.678,44.839a2.619,2.619,0,0,0-.422,2.874,2.748,2.748,0,0,0,2.489,1.57H18.962v2.9l-3.589,5.735a1.9,1.9,0,0,0,1.7,2.744h11.37a1.9,1.9,0,0,0,1.7-2.744L26.545,52.18v-2.9H42.76a2.748,2.748,0,0,0,2.489-1.57A2.619,2.619,0,0,0,44.828,44.839Z" transform="translate(1250.996 769.341)"/><path class="c" d="M44.828,44.839,35.362,34.117h3.629a2.692,2.692,0,0,0,2.462-1.547,2.612,2.612,0,0,0-.389-2.85L31.808,18.951h3.423A2.685,2.685,0,0,0,37.7,17.338a2.636,2.636,0,0,0-.5-2.853L24.135.566a1.952,1.952,0,0,0-2.763,0L8.3,14.485a2.639,2.639,0,0,0-.5,2.853,2.686,2.686,0,0,0,2.473,1.613H13.7L4.44,29.722a2.616,2.616,0,0,0-.387,2.848,2.692,2.692,0,0,0,2.462,1.546h3.629L.678,44.839a2.619,2.619,0,0,0-.422,2.874,2.748,2.748,0,0,0,2.489,1.57H18.962v2.9l-3.589,5.735a1.9,1.9,0,0,0,1.7,2.744h11.37a1.9,1.9,0,0,0,1.7-2.744L26.545,52.18v-2.9H42.76a2.748,2.748,0,0,0,2.489-1.57A2.619,2.619,0,0,0,44.828,44.839Z" transform="translate(1432.996 693.341)"/><path class="c" d="M44.828,44.839,35.362,34.117h3.629a2.692,2.692,0,0,0,2.462-1.547,2.612,2.612,0,0,0-.389-2.85L31.808,18.951h3.423A2.685,2.685,0,0,0,37.7,17.338a2.636,2.636,0,0,0-.5-2.853L24.135.566a1.952,1.952,0,0,0-2.763,0L8.3,14.485a2.639,2.639,0,0,0-.5,2.853,2.686,2.686,0,0,0,2.473,1.613H13.7L4.44,29.722a2.616,2.616,0,0,0-.387,2.848,2.692,2.692,0,0,0,2.462,1.546h3.629L.678,44.839a2.619,2.619,0,0,0-.422,2.874,2.748,2.748,0,0,0,2.489,1.57H18.962v2.9l-3.589,5.735a1.9,1.9,0,0,0,1.7,2.744h11.37a1.9,1.9,0,0,0,1.7-2.744L26.545,52.18v-2.9H42.76a2.748,2.748,0,0,0,2.489-1.57A2.619,2.619,0,0,0,44.828,44.839Z" transform="translate(1481.996 830.341)"/><path class="c" d="M44.828,44.839,35.362,34.117h3.629a2.692,2.692,0,0,0,2.462-1.547,2.612,2.612,0,0,0-.389-2.85L31.808,18.951h3.423A2.685,2.685,0,0,0,37.7,17.338a2.636,2.636,0,0,0-.5-2.853L24.135.566a1.952,1.952,0,0,0-2.763,0L8.3,14.485a2.639,2.639,0,0,0-.5,2.853,2.686,2.686,0,0,0,2.473,1.613H13.7L4.44,29.722a2.616,2.616,0,0,0-.387,2.848,2.692,2.692,0,0,0,2.462,1.546h3.629L.678,44.839a2.619,2.619,0,0,0-.422,2.874,2.748,2.748,0,0,0,2.489,1.57H18.962v2.9l-3.589,5.735a1.9,1.9,0,0,0,1.7,2.744h11.37a1.9,1.9,0,0,0,1.7-2.744L26.545,52.18v-2.9H42.76a2.748,2.748,0,0,0,2.489-1.57A2.619,2.619,0,0,0,44.828,44.839Z" transform="translate(1477.996 218.341)"/><path class="c" d="M44.828,44.839,35.362,34.117h3.629a2.692,2.692,0,0,0,2.462-1.547,2.612,2.612,0,0,0-.389-2.85L31.808,18.951h3.423A2.685,2.685,0,0,0,37.7,17.338a2.636,2.636,0,0,0-.5-2.853L24.135.566a1.952,1.952,0,0,0-2.763,0L8.3,14.485a2.639,2.639,0,0,0-.5,2.853,2.686,2.686,0,0,0,2.473,1.613H13.7L4.44,29.722a2.616,2.616,0,0,0-.387,2.848,2.692,2.692,0,0,0,2.462,1.546h3.629L.678,44.839a2.619,2.619,0,0,0-.422,2.874,2.748,2.748,0,0,0,2.489,1.57H18.962v2.9l-3.589,5.735a1.9,1.9,0,0,0,1.7,2.744h11.37a1.9,1.9,0,0,0,1.7-2.744L26.545,52.18v-2.9H42.76a2.748,2.748,0,0,0,2.489-1.57A2.619,2.619,0,0,0,44.828,44.839Z" transform="translate(1526.996 267.341)"/><path class="c" d="M44.828,44.839,35.362,34.117h3.629a2.692,2.692,0,0,0,2.462-1.547,2.612,2.612,0,0,0-.389-2.85L31.808,18.951h3.423A2.685,2.685,0,0,0,37.7,17.338a2.636,2.636,0,0,0-.5-2.853L24.135.566a1.952,1.952,0,0,0-2.763,0L8.3,14.485a2.639,2.639,0,0,0-.5,2.853,2.686,2.686,0,0,0,2.473,1.613H13.7L4.44,29.722a2.616,2.616,0,0,0-.387,2.848,2.692,2.692,0,0,0,2.462,1.546h3.629L.678,44.839a2.619,2.619,0,0,0-.422,2.874,2.748,2.748,0,0,0,2.489,1.57H18.962v2.9l-3.589,5.735a1.9,1.9,0,0,0,1.7,2.744h11.37a1.9,1.9,0,0,0,1.7-2.744L26.545,52.18v-2.9H42.76a2.748,2.748,0,0,0,2.489-1.57A2.619,2.619,0,0,0,44.828,44.839Z" transform="translate(1535.996 570.341)"/><path class="c" d="M67.478,49.177,36.869,1.562a3.4,3.4,0,0,0-5.722,0L.537,49.177A3.4,3.4,0,0,0,3.4,54.417H64.617a3.4,3.4,0,0,0,2.861-5.24ZM34.008,9.691l9.075,14.116H34.008l-6.8,6.8L23.16,26.564Z" transform="translate(776.003 221)"/><path class="c" d="M78.571,56.409H75.464L45.272,14.825,52,5.564a2.015,2.015,0,0,0-.446-2.814L48.29.384a2.014,2.014,0,0,0-2.814.447L40.293,7.969,35.109.829A2.015,2.015,0,0,0,32.295.382L29.036,2.75a2.014,2.014,0,0,0-.446,2.814l6.725,9.261L5.122,56.409H2.015A2.014,2.014,0,0,0,0,58.423v4.029a2.014,2.014,0,0,0,2.015,2.015H78.571a2.014,2.014,0,0,0,2.015-2.015V58.423A2.014,2.014,0,0,0,78.571,56.409ZM40.293,36.262,54.945,56.409h-29.3Z" transform="translate(850.339 357.673)"/><path class="c" d="M78.571,56.409H75.464L45.272,14.825,52,5.564a2.015,2.015,0,0,0-.446-2.814L48.29.384a2.014,2.014,0,0,0-2.814.447L40.293,7.969,35.109.829A2.015,2.015,0,0,0,32.295.382L29.036,2.75a2.014,2.014,0,0,0-.446,2.814l6.725,9.261L5.122,56.409H2.015A2.014,2.014,0,0,0,0,58.423v4.029a2.014,2.014,0,0,0,2.015,2.015H78.571a2.014,2.014,0,0,0,2.015-2.015V58.423A2.014,2.014,0,0,0,78.571,56.409ZM40.293,36.262,54.945,56.409h-29.3Z" transform="translate(952.339 660.673)"/><g transform="translate(67 409)"><text class="a" transform="translate(49 37)"><tspan x="0" y="0">Met</tspan></text><text class="b" transform="translate(49 65)"><tspan x="0" y="0">2015</tspan></text><path class="c" d="M13.342,37.755V56.42l2.623,3.933a1.43,1.43,0,0,0,2.379,0l2.622-3.933V37.755a20.114,20.114,0,0,1-7.624,0ZM17.154,0A17.154,17.154,0,1,0,34.307,17.154,17.154,17.154,0,0,0,17.154,0Zm0,9.053a8.109,8.109,0,0,0-8.1,8.1,1.429,1.429,0,0,1-2.859,0A10.972,10.972,0,0,1,17.154,6.194a1.429,1.429,0,0,1,0,2.859Z" transform="translate(0 4)"/></g></g></svg>